<?xml version="1.0" encoding="iso-8859-1"?>
<!-- Generator: Adobe Illustrator 19.0.0, SVG Export Plug-In . SVG Version: 6.00 Build 0)  -->
<svg version="1.1" id="Layer_1" xmlns="http://www.w3.org/2000/svg" xmlns:xlink="http://www.w3.org/1999/xlink" x="0px" y="0px"
	 viewBox="0 0 512 512" style="enable-background:new 0 0 512 512;" xml:space="preserve">
<g>
	<path style="fill:#FFC61B;" d="M60.761,139.883c-7.81,0-14.144-6.334-14.144-14.144V60.761c0-7.81,6.334-14.144,14.144-14.144
		h64.979c7.81,0,14.144,6.334,14.144,14.144s-6.334,14.144-14.144,14.144H74.905v50.835
		C74.905,133.551,68.571,139.883,60.761,139.883z"/>
	<path style="fill:#FFC61B;" d="M451.24,465.383h-64.98c-7.81,0-14.144-6.334-14.144-14.144s6.334-14.144,14.144-14.144h50.836
		V386.26c0-7.81,6.334-14.144,14.144-14.144c7.81,0,14.144,6.334,14.144,14.144v64.979
		C465.384,459.05,459.05,465.383,451.24,465.383z"/>
	<path style="fill:#FFC61B;" d="M497.856,512H14.144C6.334,512,0,505.667,0,497.856V14.144C0,6.334,6.334,0,14.144,0h483.713
		C505.667,0,512,6.334,512,14.144v483.713C512,505.667,505.667,512,497.856,512z M28.287,483.713h455.425V28.287H28.287V483.713z"/>
</g>
<g>
	<polygon style="fill:#FEE187;" points="202.949,154.282 131.648,154.282 171.554,228.854 117.256,318.471 192.825,318.471 
		242.853,228.854 	"/>
	<polyline style="fill:#FEE187;" points="284.195,291.65 356.707,414.627 281.679,414.627 209.067,291.65 319.615,97.373 
		394.744,97.373 315.648,236.377 	"/>
</g>
<path style="fill:#FFC61B;" d="M308.654,248.669c6.785,3.864,15.424,1.492,19.288-5.298l79.096-139.004
	c2.492-4.377,2.465-9.751-0.066-14.105c-2.532-4.353-7.189-7.034-12.227-7.034h-75.128c-5.085,0-9.777,2.73-12.292,7.15
	l-63.144,110.971l-28.757-53.74c-2.461-4.6-7.254-7.471-12.47-7.471h-71.304c-4.973,0-9.578,2.611-12.132,6.875
	c-2.556,4.266-2.683,9.558-0.338,13.94l36.103,67.465l-50.121,82.722c-2.646,4.368-2.733,9.821-0.226,14.271
	c2.506,4.45,7.217,7.202,12.323,7.202h75.568c5.126,0,9.851-2.774,12.349-7.25l3.584-6.42L269.5,421.816
	c2.544,4.31,7.175,6.953,12.179,6.953h75.028c5.076,0,9.762-2.721,12.281-7.128c2.519-4.407,2.481-9.826-0.096-14.199
	l-72.513-122.976c-3.969-6.728-12.637-8.969-19.367-5c-6.73,3.969-8.967,12.64-5,19.367l59.937,101.649h-42.193l-64.339-108.964
	l102.425-180.003h42.581L303.354,229.38C299.492,236.171,301.864,244.807,308.654,248.669z M184.522,304.327h-42.159l41.287-68.146
	c2.59-4.273,2.733-9.596,0.375-14.001l-28.767-53.756h39.219l32.259,60.284L184.522,304.327z"/>
<g>
</g>
<g>
</g>
<g>
</g>
<g>
</g>
<g>
</g>
<g>
</g>
<g>
</g>
<g>
</g>
<g>
</g>
<g>
</g>
<g>
</g>
<g>
</g>
<g>
</g>
<g>
</g>
<g>
</g>
</svg>
